HIERARCHY
ROOT Hips
{
	OFFSET 0.00000 0.00000 0.00000
	CHANNELS 6 Xposition Yposition Zposition Zrotation Yrotation Xrotation 
	JOINT LHipJoint
	{
		OFFSET 0 0 0
		CHANNELS 3 Zrotation Yrotation Xrotation
		JOINT LeftHip
		{
			OFFSET 1.58895 -1.83665 0.71753
			CHANNELS 3 Zrotation Yrotation Xrotation
			JOINT LeftKnee
			{
				OFFSET 2.50528 -6.88321 0.00000
				CHANNELS 3 Zrotation Yrotation Xrotation
				JOINT LeftAnkle
				{
					OFFSET 2.63244 -7.23257 0.00000
					CHANNELS 3 Zrotation Yrotation Xrotation
					JOINT LeftToe
					{
						OFFSET 0.23691 -0.65090 1.72750
						CHANNELS 3 Zrotation Yrotation Xrotation
						End Site
						{
							OFFSET 0.00000 -0.00000 0.92561
						}
					}
				}
			}
		}
	}
	JOINT RHipJoint
	{
		OFFSET 0 0 0
		CHANNELS 3 Zrotation Yrotation Xrotation
		JOINT RightHip
		{
			OFFSET -1.51435 -1.83665 0.71753
			CHANNELS 3 Zrotation Yrotation Xrotation
			JOINT RightKnee
			{
				OFFSET -2.54551 -6.99375 0.00000
				CHANNELS 3 Zrotation Yrotation Xrotation
				JOINT RightAnkle
				{
					OFFSET -2.66027 -7.30903 0.00000
					CHANNELS 3 Zrotation Yrotation Xrotation
					JOINT RightToe
					{
						OFFSET -0.22981 -0.63138 2.03959
						CHANNELS 3 Zrotation Yrotation Xrotation
						End Site
						{
							OFFSET -0.00000 -0.00000 1.07060
						}
					}
				}
			}
		}
	}
	JOINT lowerback
	{
		OFFSET 0 0 0
		CHANNELS 3 Zrotation Yrotation Xrotation
		JOINT Chest
		{
			OFFSET -0.02651 1.86275 -0.11152
			CHANNELS 3 Zrotation Yrotation Xrotation
			JOINT Chest2
			{
				OFFSET 0.01019 1.86224 0.04087
				CHANNELS 3 Zrotation Yrotation Xrotation
				JOINT lowerneck
				{
					OFFSET 0 0 0
					CHANNELS 3 Zrotation Yrotation Xrotation
					JOINT Neck
					{
						OFFSET -0.01926 1.80512 0.08867
						CHANNELS 3 Zrotation Yrotation Xrotation
						JOINT Head
						{
							OFFSET 0.05516 1.76451 -0.38475
							CHANNELS 3 Zrotation Yrotation Xrotation
							End Site
							{
								OFFSET 0.01592 1.82587 -0.14001
							}
						}
					}
				}
				JOINT LeftCollar
				{
					OFFSET 0 0 0
					CHANNELS 3 Zrotation Yrotation Xrotation
					JOINT LeftShoulder
					{
						OFFSET 3.47116 1.51376 0.14491
CHANNELS 3 Zrotation Xrotation Yrotation
						JOINT LeftElbow
						{
OFFSET 0 -4.780950 0.000000
CHANNELS 3 Zrotation Xrotation Yrotation
							JOINT LeftWrist
							{
OFFSET 0 -3.586150 -0.000000
CHANNELS 3 Zrotation Xrotation Yrotation
								JOINT lhand
								{
									OFFSET 0 0 0
CHANNELS 3 Zrotation Xrotation Yrotation
									JOINT LFingers
									{
OFFSET 0 -0.659810 0.000000
CHANNELS 3 Zrotation Xrotation Yrotation
										End Site
										{
OFFSET 0 -0.531960 0.000000
										}
									}
								}
								JOINT LThumb
								{
OFFSET 0 0.000000 0.000000
CHANNELS 3 Zrotation Xrotation Yrotation
									End Site
									{
OFFSET 0 -0.540080 0.540080
									}
								}
							}
						}
					}
				}
				JOINT RightCollar
				{
					OFFSET 0 0 0
					CHANNELS 3 Zrotation Yrotation Xrotation
					JOINT RightShoulder
					{
						OFFSET -3.31725 1.61216 0.35156
CHANNELS 3 Zrotation Xrotation Yrotation
						JOINT RightElbow
						{
OFFSET 0 -4.489130 0.000000
CHANNELS 3 Zrotation Xrotation Yrotation
							JOINT RightWrist
							{
OFFSET 0 -3.705100 0.000000
CHANNELS 3 Zrotation Xrotation Yrotation
								JOINT rhand
								{
									OFFSET 0 0 0
CHANNELS 3 Zrotation Xrotation Yrotation
									JOINT RFingers
									{
OFFSET 0 -0.449140 0.000000
CHANNELS 3 Zrotation Xrotation Yrotation
										End Site
										{
OFFSET 0 -0.362110 0.000000
										}
									}
								}
								JOINT RThumb
								{
OFFSET 0 0.000000 0.000000
CHANNELS 3 Zrotation Xrotation Yrotation
									End Site
									{
OFFSET 0 -0.367630 0.367630
									}
								}
							}
						}
					}
				}
			}
		}
	}
}
MOTION
Frames: 8
Frame Time: 0.008333333333333333
-0.639000 18.665800 5.863500 -1.565600 -5.209000 2.128500 0.000000 0.000000 0.000000 -14.321000 -9.677200 1.183100 1.179900 6.894000 19.401700 2.294500 9.217000 -33.082300 7.609600 -15.824400 -51.143900 0.000000 0.000000 0.000000 0.000000 0.000000 0.000000 0.000000 0.000000 0.000000 -0.000000 -0.000000 0.000000 -0.000000 -0.000000 0.000000 0.150800 1.564800 -0.888800 0.068900 2.088800 -2.709300 -0.037000 1.041000 -2.276100 -1.561800 -1.535900 -9.375500 2.924100 -2.621900 25.233200 0.991900 -1.057800 9.551400 -0.000000 -0.000000 0.000000 -2.877200 13.656700 -25.137300 21.097400 -31.941900 6.101400 3.790300 7.030500 22.543300 0.000000 0.000000 0.000000 -7.125000 0.000000 0.000000 -15.677700 8.057400 -13.869100 -0.000000 -0.000000 0.000000 2.441300 20.624500 20.400300 -25.866600 -37.076700 -8.807100 -9.752600 26.253200 32.766000 0.000000 0.000000 0.000000 7.125000 0.000000 -0.000000 26.496600 61.146000 -10.850300
-0.638900 18.665920 5.864960 -1.602087 -5.216943 2.134878 0.000000 0.000000 0.000000 -14.301342 -9.756714 1.225159 1.180560 6.895941 19.407422 2.318086 9.216274 -33.217103 7.598261 -15.815680 -51.102342 0.000000 0.000000 0.000000 0.000000 0.000000 0.000000 0.000000 0.000000 0.000000 0.000000 0.000000 0.000000 0.000000 0.000000 0.000000 0.176125 1.570982 -0.888375 0.080618 2.097363 -2.688497 -0.038885 1.044902 -2.254379 -1.521062 -1.530842 -9.441906 2.893798 -2.613785 25.213196 0.974875 -1.052861 9.555780 0.000000 0.000000 0.000000 -2.844684 13.674370 -25.187025 21.095621 -31.939801 6.100420 3.843688 6.993182 22.622978 0.000000 0.000000 0.000000 -7.125000 0.000000 0.000000 -15.643415 7.977002 -13.862035 0.000000 0.000000 0.000000 2.432898 20.661703 20.365489 -25.846227 -37.056487 -8.794784 -9.775082 26.363669 32.844623 0.000000 0.000000 0.000000 7.125000 0.000000 0.000000 26.547022 61.220706 -10.920000
-0.638780 18.665480 5.866160 -1.621927 -5.220894 2.131402 0.000000 0.000000 0.000000 -14.305821 -9.861520 1.276107 1.181400 6.898221 19.414182 2.328914 9.278669 -33.317737 7.607393 -15.822730 -51.135827 0.000000 0.000000 0.000000 0.000000 0.000000 0.000000 0.000000 0.000000 0.000000 0.000000 0.000000 0.000000 0.000000 0.000000 0.000000 0.190763 1.576459 -0.871893 0.075821 2.104639 -2.680419 -0.052361 1.048179 -2.254663 -1.477839 -1.542532 -9.442477 2.896975 -2.638880 25.186371 0.965683 -1.060388 9.546566 0.000000 0.000000 0.000000 -2.795122 13.712304 -25.205591 21.097140 -31.941600 6.101220 3.870371 6.992531 22.611089 0.000000 0.000000 0.000000 -7.125000 0.000000 0.000000 -15.627334 7.986490 -13.843511 0.000000 0.000000 0.000000 2.406944 20.749336 20.421499 -25.873718 -37.083738 -8.811351 -9.563939 26.224592 32.907252 0.000000 0.000000 0.000000 7.125000 0.000000 0.000000 26.824877 61.224361 -11.046129
-0.638119 18.665240 5.866280 -1.617643 -5.210331 2.140231 0.000000 0.000000 0.000000 -14.320963 -9.905114 1.275488 1.181640 6.898760 19.415859 2.320154 9.323742 -33.295687 7.616496 -15.829797 -51.169185 0.000000 0.000000 0.000000 0.000000 0.000000 0.000000 0.000000 0.000000 0.000000 0.000000 0.000000 0.000000 0.000000 0.000000 0.000000 0.192498 1.572795 -0.862115 0.070170 2.099713 -2.676214 -0.059270 1.045596 -2.255557 -1.503083 -1.558429 -9.424444 2.951930 -2.669661 25.154951 0.985629 -1.071607 9.533920 0.000000 0.000000 0.000000 -2.767821 13.735563 -25.200275 21.085000 -31.927417 6.094789 3.871666 6.989909 22.618749 0.000000 0.000000 0.000000 -7.125000 0.000000 0.000000 -15.626388 7.979013 -13.845036 0.000000 0.000000 0.000000 2.345551 20.813263 20.488964 -25.875716 -37.085736 -8.812585 -9.512375 26.148114 32.771215 0.000000 0.000000 0.000000 7.125000 0.000000 0.000000 26.750551 61.092187 -10.928991
-0.637479 18.664799 5.867402 -1.603448 -5.244683 2.150950 0.000000 0.000000 0.000000 -14.344083 -9.884537 1.270860 1.181360 6.898039 19.413657 2.319883 9.318650 -33.291174 7.608329 -15.823471 -51.139280 0.000000 0.000000 0.000000 0.000000 0.000000 0.000000 0.000000 0.000000 0.000000 0.000000 0.000000 0.000000 0.000000 0.000000 0.000000 0.203519 1.583221 -0.882518 0.051355 2.113267 -2.647135 -0.083694 1.052053 -2.213011 -1.500006 -1.562301 -9.491910 2.975052 -2.681726 25.174439 0.991350 -1.073639 9.554314 0.000000 0.000000 0.000000 -2.729468 13.706870 -25.166741 21.073254 -31.913793 6.088597 3.846407 7.005520 22.650994 0.000000 0.000000 0.000000 -7.125000 0.000000 0.000000 -15.641199 7.949849 -13.868568 0.000000 0.000000 0.000000 2.324838 20.774680 20.445652 -25.831482 -37.041823 -8.785965 -9.727055 26.262248 32.549453 0.000000 0.000000 0.000000 7.125000 0.000000 0.000000 26.321663 60.948829 -10.649052
-0.637499 18.664301 5.869298 -1.607977 -5.296119 2.167110 0.000000 0.000000 0.000000 -14.343230 -9.869002 1.271705 1.180798 6.896596 19.409287 2.333000 9.266747 -33.333727 7.577302 -15.799402 -51.025407 0.000000 0.000000 0.000000 0.000000 0.000000 0.000000 0.000000 0.000000 0.000000 0.000000 0.000000 0.000000 0.000000 0.000000 0.000000 0.214166 1.599275 -0.933447 0.042392 2.134167 -2.606599 -0.096690 1.062284 -2.142030 -1.437826 -1.574646 -9.531439 2.887395 -2.688254 25.153132 0.949297 -1.080131 9.552412 0.000000 0.000000 0.000000 -2.664413 13.689830 -25.208951 21.113635 -31.960841 6.110019 3.841531 6.994974 22.586929 0.000000 0.000000 0.000000 -7.125000 0.000000 0.000000 -15.645544 8.011973 -13.852819 0.000000 0.000000 0.000000 2.324487 20.719868 20.364721 -25.833693 -37.043993 -8.787256 -9.040495 25.901159 32.655998 0.000000 0.000000 0.000000 7.125000 0.000000 0.000000 27.129354 60.877225 -10.957179
-0.637160 18.665241 5.867898 -1.589591 -5.238330 2.169302 0.000000 0.000000 0.000000 -14.368453 -9.939457 1.280881 1.179678 6.893354 19.399701 2.330053 9.310638 -33.344063 7.582339 -15.803350 -51.044023 0.000000 0.000000 0.000000 0.000000 0.000000 0.000000 0.000000 0.000000 0.000000 0.000000 0.000000 0.000000 0.000000 0.000000 0.000000 0.190994 1.581895 -0.893173 0.034143 2.110986 -2.604321 -0.093206 1.051103 -2.162729 -1.461680 -1.606565 -9.404373 2.896622 -2.727690 25.018379 0.952549 -1.102133 9.481906 0.000000 0.000000 0.000000 -2.602707 13.705092 -25.229986 21.132358 -31.982574 6.119908 3.785878 7.049262 22.560476 0.000000 0.000000 0.000000 -7.125000 0.000000 0.000000 -15.680103 8.041240 -13.876545 0.000000 0.000000 0.000000 2.319324 20.767692 20.311397 -25.895620 -37.105459 -8.824636 -7.281195 24.962721 32.778903 0.000000 0.000000 0.000000 7.125000 0.000000 0.000000 29.043425 60.563263 -11.586255
-0.637040 18.665679 5.868106 -1.566418 -5.223140 2.140902 0.000000 0.000000 0.000000 -14.409168 -9.978885 1.333504 1.178478 6.889955 19.389786 2.323626 9.367887 -33.343086 7.586353 -15.806428 -51.058634 0.000000 0.000000 0.000000 0.000000 0.000000 0.000000 0.000000 0.000000 0.000000 0.000000 0.000000 0.000000 0.000000 0.000000 0.000000 0.183718 1.578960 -0.865660 0.011857 2.106633 -2.582054 -0.112351 1.048826 -2.154706 -1.506233 -1.628302 -9.244139 2.968475 -2.762701 24.823940 0.981555 -1.118157 9.385282 0.000000 0.000000 0.000000 -2.546529 13.684465 -25.175944 21.126236 -31.975419 6.116648 3.716385 7.087587 22.663879 0.000000 0.000000 0.000000 -7.125000 0.000000 0.000000 -15.720341 7.946676 -13.945651 0.000000 0.000000 0.000000 2.331837 20.793161 20.276482 -25.914612 -37.124252 -8.836103 -7.099315 24.862696 32.736153 0.000000 0.000000 0.000000 7.125000 0.000000 0.000000 29.187165 60.483222 -11.593576
